<?xml version="1.0" encoding="UTF-8" standalone="no"?>
<!-- Created with Inkscape (http://www.inkscape.org/) -->
<svg xmlns:rdf="http://www.w3.org/1999/02/22-rdf-syntax-ns#" xmlns="http://www.w3.org/2000/svg" xmlns:cc="http://creativecommons.org/ns#" xmlns:dc="http://purl.org/dc/elements/1.1/" xmlns:svg="http://www.w3.org/2000/svg" xmlns:inkscape="http://www.inkscape.org/namespaces/inkscape" xmlns:sodipodi="http://sodipodi.sourceforge.net/DTD/sodipodi-0.dtd" xmlns:ns1="http://sozi.baierouge.fr" xmlns:xlink="http://www.w3.org/1999/xlink" id="svg2" viewBox="0 0 720 720" version="1.0" inkscape:version="0.91 r13725">
  <g id="layer1" transform="translate(0,360)">
    <path id="path3153" style="fill:#ff0000" d="m317.87 40 42.13 320 42.13-320z" transform="translate(-3.4516e-7 -360)"/>
    <path id="path3168" style="fill:#ff4000" d="m317.87 40 42.13 320 42.13-320z" transform="matrix(.96593 .25882 -.25882 .96593 105.44 -440.91)"/>
    <path id="path3170" style="fill:#ff8000" d="m317.87 40 42.13 320 42.13-320z" transform="matrix(.86603 0.5 -0.5 .86603 228.23 -491.77)"/>
    <path id="path3172" style="fill:#ffc000" d="m317.87 40 42.13 320 42.13-320z" transform="matrix(.70711 .70711 -.70711 .70711 360 -509.12)"/>
    <path id="path3174" style="fill:#ffff00" d="m317.87 40 42.13 320 42.13-320z" transform="matrix(.5 .86603 -.86603 .5 491.77 -491.77)"/>
    <path id="path3187" style="fill:#c0ff00" d="m317.87 40 42.13 320 42.13-320z" transform="matrix(.25882 .96593 -.96593 .25882 614.56 -440.91)"/>
    <path id="path3189" style="fill:#80ff00" d="m317.87 40 42.13 320 42.13-320z" transform="matrix(0 1 -1 0 720 -360)"/>
    <path id="path3191" style="fill:#40ff00" d="m317.87 40 42.13 320 42.13-320z" transform="matrix(-.25882 .96593 -.96593 -.25882 800.91 -254.56)"/>
    <path id="path3193" style="fill:#00ff00" d="m317.87 40 42.13 320 42.13-320z" transform="matrix(-0.5 .86603 -.86603 -0.5 851.77 -131.77)"/>
    <path id="path3195" style="fill:#00ff40" d="m317.87 40 42.13 320 42.13-320z" transform="matrix(-.70711 .70711 -.70711 -.70711 869.12 .000075778)"/>
    <path id="path3197" style="fill:#00ff80" d="m317.87 40 42.13 320 42.13-320z" transform="matrix(-.86603 .5 -.5 -.86603 851.77 131.77)"/>
    <path id="path3199" style="fill:#00ffc0" d="m317.87 40 42.13 320 42.13-320z" transform="matrix(-.96593 .25882 -.25882 -.96593 800.91 254.56)"/>
    <path id="path3201" style="fill:#00ffff" d="m317.87 40 42.13 320 42.13-320z" transform="matrix(-1 0 0 -1 720 360)"/>
    <path id="path3203" style="fill:#00c0ff" d="m317.87 40 42.13 320 42.13-320z" transform="matrix(-.96593 -.25882 .25882 -.96593 614.56 440.91)"/>
    <path id="path3205" style="fill:#0080ff" d="m317.87 40 42.13 320 42.13-320z" transform="matrix(-.86603 -0.5 0.5 -.86603 491.77 491.77)"/>
    <path id="path3207" style="fill:#0040ff" d="m317.87 40 42.13 320 42.13-320z" transform="matrix(-.70711 -.70711 .70711 -.70711 360 509.12)"/>
    <path id="path3209" style="fill:#0000ff" d="m317.87 40 42.13 320 42.13-320z" transform="matrix(-.5 -.86603 .86603 -.5 228.23 491.77)"/>
    <path id="path3211" style="fill:#4000ff" d="m317.87 40 42.13 320 42.13-320z" transform="matrix(-.25882 -.96593 .96593 -.25882 105.44 440.91)"/>
    <path id="path3213" style="fill:#8000ff" d="m317.87 40 42.13 320 42.13-320z" transform="matrix(0 -1 1 0 -.000036195 360)"/>
    <path id="path3215" style="fill:#c000ff" d="m317.87 40 42.13 320 42.13-320z" transform="matrix(.25882 -.96593 .96593 .25882 -80.908 254.56)"/>
    <path id="path3217" style="fill:#ff00ff" d="m317.87 40 42.13 320 42.13-320z" transform="matrix(0.5 -.86603 .86603 0.5 -131.77 131.77)"/>
    <path id="path3219" style="fill:#ff00c0" d="m317.87 40 42.13 320 42.13-320z" transform="matrix(.70711 -.70711 .70711 .70711 -149.12 .0000061868)"/>
    <path id="path3221" style="fill:#ff0080" d="m317.87 40 42.13 320 42.13-320z" transform="matrix(.86603 -.5 .5 .86603 -131.77 -131.77)"/>
    <path id="path3223" style="fill:#ff0040" d="m317.87 40 42.13 320 42.13-320z" transform="matrix(.96593 -.25882 .25882 .96593 -80.908 -254.56)"/>
  </g>
  <metadata>
    <rdf:RDF>
      <cc:Work>
        <dc:format>image/svg+xml</dc:format>
        <dc:type rdf:resource="http://purl.org/dc/dcmitype/StillImage"/>
        <cc:license rdf:resource="http://creativecommons.org/licenses/publicdomain/"/>
        <dc:publisher>
          <cc:Agent rdf:about="http://openclipart.org/">
            <dc:title>Openclipart</dc:title>
          </cc:Agent>
        </dc:publisher>
        <dc:title>rainbow 24gon</dc:title>
        <dc:date>2011-02-13T22:14:49</dc:date>
        <dc:description>Another 24gon by itself without extra stuff like previous versions.</dc:description>
        <dc:source>https://openclipart.org/detail/118195/rainbow-24gon-by-10binary-118195</dc:source>
        <dc:creator>
          <cc:Agent>
            <dc:title>10binary</dc:title>
          </cc:Agent>
        </dc:creator>
        <dc:subject>
          <rdf:Bag>
            <rdf:li>24</rdf:li>
            <rdf:li>24gon</rdf:li>
            <rdf:li>colors</rdf:li>
            <rdf:li>rainbow</rdf:li>
          </rdf:Bag>
        </dc:subject>
      </cc:Work>
      <cc:License rdf:about="http://creativecommons.org/licenses/publicdomain/">
        <cc:permits rdf:resource="http://creativecommons.org/ns#Reproduction"/>
        <cc:permits rdf:resource="http://creativecommons.org/ns#Distribution"/>
        <cc:permits rdf:resource="http://creativecommons.org/ns#DerivativeWorks"/>
      </cc:License>
    </rdf:RDF>
  </metadata>
</svg>
